<svg width="320" height="44" fill="none" xmlns="http://www.w3.org/2000/svg"><path d="M.056 43.353V.056h30.195v43.297H.056zm25.866-4.33V4.442H4.442v34.58h21.48z" fill="#FFD400" stroke="#FFD400" stroke-width=".25" stroke-miterlimit="2"/><path d="M50.381 29.183h-1.855c-2.474-3.486-4.892-6.916-7.31-10.796v10.796h-2.08v-15.07h1.855c2.474 3.43 4.892 6.86 7.31 10.74h.056v-10.74h2.08v15.07h-.056zm4.892-5.96c.619-1.968 1.181-3.824 1.743-6.13h.057a381.546 381.546 0 001.687 6.13h-3.487zm1.012-9.11l-5.229 15.07h2.25l1.293-4.105h4.554l1.181 4.105h2.868l-4.78-15.07h-2.136zm9.391 15.07V16.138h-3.993v-2.024h10.515v2.024h-3.936v13.045h-2.586zm7.366 0v-15.07h2.586v15.07h-2.586zm10.514-1.912c-2.698 0-3.654-2.98-3.654-5.848 0-2.755 1.068-5.454 3.654-5.454 2.587 0 3.655 2.643 3.655 5.455 0 2.867-.956 5.847-3.654 5.847zm0 2.137c3.937 0 6.41-3.486 6.41-7.985 0-4.217-2.698-7.59-6.41-7.59-3.654 0-6.41 3.373-6.41 7.59.057 4.499 2.474 7.985 6.41 7.985zm19.287-.225h-1.855c-2.475-3.486-4.892-6.916-7.31-10.796v10.796h-2.08v-15.07h1.855c2.474 3.43 4.892 6.86 7.31 10.74h.056v-10.74h2.08v15.07h-.056zm4.892-5.96c.619-1.968 1.181-3.824 1.743-6.13h.056a388.884 388.884 0 001.687 6.13h-3.486zm1.012-9.11l-5.229 15.07h2.249l1.293-4.105h4.555l1.181 4.105h2.867l-4.779-15.07h-2.137zm7.704.001h2.53v13.045h5.117v2.024h-7.647v-15.07zm28.227 8.153v6.241c-1.406.563-2.812.9-4.274.9-4.442 0-7.253-3.43-7.253-7.872 0-4.105 2.811-7.704 7.309-7.704 1.406 0 2.812.507 3.655 1.181l-.843 1.8c-.675-.45-1.743-.787-2.755-.787-2.756 0-4.611 2.192-4.611 5.622 0 3.599 2.137 5.68 4.386 5.68.675 0 1.293-.113 1.799-.394v-4.61h2.587v-.057zm9.221-6.185h-4.329v4.16h4.217v2.025h-4.217v4.892h5.116v2.024h-7.703V14.058h6.916v2.024zm7.928 11.189c-2.699 0-3.654-2.98-3.654-5.848 0-2.755 1.068-5.397 3.654-5.397 2.587 0 3.655 2.642 3.655 5.398 0 2.867-.956 5.847-3.655 5.847zm0 2.137c3.937 0 6.411-3.486 6.411-7.985 0-4.217-2.699-7.59-6.411-7.59-3.654 0-6.41 3.373-6.41 7.59.057 4.499 2.474 7.985 6.41 7.985zm18.837-7.141v6.241c-1.405.563-2.811.9-4.273.9-4.442 0-7.254-3.43-7.254-7.872 0-4.105 2.812-7.704 7.31-7.704 1.406 0 2.812.507 3.655 1.181l-.843 1.8c-.675-.45-1.744-.787-2.756-.787-2.755 0-4.61 2.192-4.61 5.622 0 3.599 2.136 5.68 4.385 5.68.675 0 1.294-.113 1.8-.394v-4.61h2.586v-.057zm4.948-6.185h1.125c1.518 0 2.418.9 2.418 2.418 0 2.024-1.237 2.924-2.474 2.98-.281 0-.844.056-1.069.056v-5.454zm6.523 13.101l-3.036-6.241c1.63-.9 2.586-2.643 2.586-4.499 0-2.924-1.799-4.33-4.667-4.33h-4.048v15.07h2.586v-5.735h1.181l2.418 5.679h2.98v.056zm4.273-6.016c.619-1.968 1.181-3.824 1.744-6.13h.056a367 367 0 001.687 6.13h-3.487zm1.013-9.11l-5.23 15.07h2.249l1.294-4.105h4.554l1.181 4.105h2.868l-4.78-15.07h-2.136zm10.346 15.126h-2.587V14.058h4.049c2.867 0 4.667 1.405 4.667 4.33 0 2.53-1.856 5.06-4.948 5.06h-1.181v-1.912h1.124c1.237-.056 2.474-.956 2.474-2.98 0-1.575-.843-2.418-2.361-2.418h-1.181v13.045h-.056zm18.105 0h-2.586v-7.31h-5.398v7.31h-2.53V14.058h2.53v5.847h5.398v-5.791h2.586v15.07zm2.475 0V14.058h2.53v15.125h-2.53zm14.169-12.37c-.618-.394-1.63-.844-2.643-.844-2.642 0-4.554 2.193-4.554 5.623 0 3.599 2.137 5.68 4.611 5.68 1.012 0 1.911-.338 2.586-.732l.731 1.856c-.787.562-2.136 1.012-3.43 1.012-4.442 0-7.253-3.43-7.253-7.872 0-4.105 2.755-7.704 7.253-7.704 1.35 0 2.587.563 3.486 1.181l-.787 1.8zm26.54 10.458c-2.699 0-3.654-2.98-3.654-5.848 0-2.755 1.068-5.454 3.654-5.454 2.587 0 3.655 2.643 3.655 5.455 0 2.867-.956 5.847-3.655 5.847zm0 2.137c3.937 0 6.411-3.486 6.411-8.04 0-4.218-2.699-7.592-6.411-7.592-3.654 0-6.41 3.374-6.41 7.591.057 4.555 2.474 8.041 6.41 8.041zm48.301-13.326v5.398c-.225 0-.843.056-1.068.056-1.349-.056-2.53-.843-2.474-2.98.056-1.35.843-2.418 2.418-2.418h1.124v-.056zm-7.309 13.101h2.98l3.205-5.679h1.181v5.68H320V14.057h-4.048c-2.362 0-4.667 1.405-4.667 4.33 0 1.799.731 3.485 2.586 4.498l-3.823 6.297zm-54.093 0h-2.586v-15.07h4.048c2.868 0 4.667 1.407 4.667 4.33 0 2.53-1.856 5.061-4.948 5.061h-1.181v-1.912h1.125c1.237-.056 2.474-.956 2.474-2.98 0-1.574-.844-2.418-2.362-2.418h-1.181v12.99h-.056zm44.758-.056h-2.53v-15.07h2.53v11.246l5.848-11.245h2.587v15.069h-2.587V17.994l-5.848 11.133zm-14.394-12.314c-.619-.394-1.687-.844-2.643-.844-2.643 0-4.555 2.193-4.555 5.623 0 3.599 2.137 5.68 4.611 5.68 1.012 0 1.912-.338 2.587-.732l.731 1.856c-.787.562-2.137 1.012-3.43 1.012-4.442 0-7.254-3.43-7.254-7.872 0-4.105 2.755-7.704 7.254-7.704 1.349 0 2.586.563 3.486 1.181l-.787 1.8z" fill="#262626" stroke="#262626" stroke-width=".25" stroke-miterlimit="10"/><path d="M296.328 16.813c-.619-.394-1.687-.844-2.643-.844-2.643 0-4.555 2.193-4.555 5.623 0 3.599 2.137 5.68 4.611 5.68 1.012 0 1.912-.338 2.587-.732l.731 1.856c-.788.562-2.137 1.012-3.43 1.012-4.443 0-7.254-3.43-7.254-7.872 0-4.105 2.755-7.704 7.254-7.704 1.349 0 2.586.563 3.486 1.181l-.787 1.8z" fill="#262626" stroke="#262626" stroke-width=".25" stroke-miterlimit="10"/></svg>